<mxfile host="app.diagrams.net" modified="2023-09-18T22:27:31.649Z" agent="Mozilla/5.0 (Windows NT 10.0; Win64; x64) AppleWebKit/537.36 (KHTML, like Gecko) Chrome/116.0.0.0 Safari/537.36" etag="--FeTSPPIleKh9CgAOR0" version="21.7.5" type="device">
  <diagram name="Page-1" id="bkHNob00XbfnMUnETPzM">
    <mxGraphModel dx="1405" dy="785" grid="1" gridSize="10" guides="1" tooltips="1" connect="1" arrows="1" fold="1" page="1" pageScale="1" pageWidth="850" pageHeight="1100" math="0" shadow="0">
      <root>
        <mxCell id="0" />
        <mxCell id="1" parent="0" />
        <mxCell id="ttTCm1TydupwxM61X2c0-3" value="" style="edgeStyle=orthogonalEdgeStyle;rounded=0;orthogonalLoop=1;jettySize=auto;html=1;" edge="1" parent="1" source="ttTCm1TydupwxM61X2c0-1" target="ttTCm1TydupwxM61X2c0-2">
          <mxGeometry relative="1" as="geometry" />
        </mxCell>
        <mxCell id="ttTCm1TydupwxM61X2c0-1" value="client" style="rounded=1;whiteSpace=wrap;html=1;" vertex="1" parent="1">
          <mxGeometry x="40" y="170" width="60" height="30" as="geometry" />
        </mxCell>
        <mxCell id="ttTCm1TydupwxM61X2c0-6" value="" style="edgeStyle=orthogonalEdgeStyle;rounded=0;orthogonalLoop=1;jettySize=auto;html=1;entryX=0;entryY=0.5;entryDx=0;entryDy=0;exitX=0.5;exitY=1;exitDx=0;exitDy=0;" edge="1" parent="1" source="ttTCm1TydupwxM61X2c0-2" target="ttTCm1TydupwxM61X2c0-4">
          <mxGeometry relative="1" as="geometry">
            <mxPoint x="180" y="315" as="targetPoint" />
          </mxGeometry>
        </mxCell>
        <mxCell id="ttTCm1TydupwxM61X2c0-7" value="yes" style="edgeLabel;html=1;align=center;verticalAlign=middle;resizable=0;points=[];" vertex="1" connectable="0" parent="ttTCm1TydupwxM61X2c0-6">
          <mxGeometry x="0.1917" y="1" relative="1" as="geometry">
            <mxPoint as="offset" />
          </mxGeometry>
        </mxCell>
        <mxCell id="ttTCm1TydupwxM61X2c0-10" value="" style="edgeStyle=orthogonalEdgeStyle;rounded=0;orthogonalLoop=1;jettySize=auto;html=1;entryX=0;entryY=0.5;entryDx=0;entryDy=0;exitX=0.5;exitY=0;exitDx=0;exitDy=0;" edge="1" parent="1" source="ttTCm1TydupwxM61X2c0-2" target="ttTCm1TydupwxM61X2c0-8">
          <mxGeometry relative="1" as="geometry">
            <mxPoint x="180" y="55" as="targetPoint" />
          </mxGeometry>
        </mxCell>
        <mxCell id="ttTCm1TydupwxM61X2c0-11" value="no" style="edgeLabel;html=1;align=center;verticalAlign=middle;resizable=0;points=[];" vertex="1" connectable="0" parent="ttTCm1TydupwxM61X2c0-10">
          <mxGeometry x="0.101" relative="1" as="geometry">
            <mxPoint as="offset" />
          </mxGeometry>
        </mxCell>
        <mxCell id="ttTCm1TydupwxM61X2c0-2" value="has an account?" style="rhombus;whiteSpace=wrap;html=1;" vertex="1" parent="1">
          <mxGeometry x="120" y="145" width="80" height="80" as="geometry" />
        </mxCell>
        <mxCell id="ttTCm1TydupwxM61X2c0-17" value="" style="edgeStyle=orthogonalEdgeStyle;rounded=0;orthogonalLoop=1;jettySize=auto;html=1;entryX=0;entryY=0.5;entryDx=0;entryDy=0;" edge="1" parent="1" source="ttTCm1TydupwxM61X2c0-4" target="ttTCm1TydupwxM61X2c0-12">
          <mxGeometry relative="1" as="geometry">
            <mxPoint x="360" y="255" as="targetPoint" />
          </mxGeometry>
        </mxCell>
        <mxCell id="ttTCm1TydupwxM61X2c0-4" value="signin" style="rounded=1;whiteSpace=wrap;html=1;" vertex="1" parent="1">
          <mxGeometry x="200" y="240" width="60" height="30" as="geometry" />
        </mxCell>
        <mxCell id="ttTCm1TydupwxM61X2c0-15" value="" style="edgeStyle=orthogonalEdgeStyle;rounded=0;orthogonalLoop=1;jettySize=auto;html=1;entryX=0;entryY=0.5;entryDx=0;entryDy=0;" edge="1" parent="1" source="ttTCm1TydupwxM61X2c0-8" target="ttTCm1TydupwxM61X2c0-12">
          <mxGeometry relative="1" as="geometry">
            <mxPoint x="360" y="107.5" as="targetPoint" />
          </mxGeometry>
        </mxCell>
        <mxCell id="ttTCm1TydupwxM61X2c0-8" value="signup" style="rounded=1;whiteSpace=wrap;html=1;" vertex="1" parent="1">
          <mxGeometry x="200" y="90" width="60" height="35" as="geometry" />
        </mxCell>
        <mxCell id="ttTCm1TydupwxM61X2c0-22" style="edgeStyle=orthogonalEdgeStyle;rounded=0;orthogonalLoop=1;jettySize=auto;html=1;entryX=0.5;entryY=1;entryDx=0;entryDy=0;" edge="1" parent="1" source="ttTCm1TydupwxM61X2c0-12" target="ttTCm1TydupwxM61X2c0-20">
          <mxGeometry relative="1" as="geometry" />
        </mxCell>
        <mxCell id="ttTCm1TydupwxM61X2c0-12" value="Booking process started" style="rounded=0;whiteSpace=wrap;html=1;" vertex="1" parent="1">
          <mxGeometry x="310" y="155" width="100" height="60" as="geometry" />
        </mxCell>
        <mxCell id="ttTCm1TydupwxM61X2c0-18" value="review booking history" style="rounded=0;whiteSpace=wrap;html=1;" vertex="1" parent="1">
          <mxGeometry x="310" y="250" width="100" height="60" as="geometry" />
        </mxCell>
        <mxCell id="ttTCm1TydupwxM61X2c0-19" value="" style="endArrow=classic;html=1;rounded=0;exitX=0.5;exitY=1;exitDx=0;exitDy=0;entryX=0.5;entryY=0;entryDx=0;entryDy=0;" edge="1" parent="1" source="ttTCm1TydupwxM61X2c0-12" target="ttTCm1TydupwxM61X2c0-18">
          <mxGeometry width="50" height="50" relative="1" as="geometry">
            <mxPoint x="380" y="230" as="sourcePoint" />
            <mxPoint x="430" y="180" as="targetPoint" />
          </mxGeometry>
        </mxCell>
        <mxCell id="ttTCm1TydupwxM61X2c0-20" value="book an appointment" style="rounded=0;whiteSpace=wrap;html=1;" vertex="1" parent="1">
          <mxGeometry x="310" y="50" width="100" height="60" as="geometry" />
        </mxCell>
        <mxCell id="ttTCm1TydupwxM61X2c0-23" value="update/delete an appointment" style="rounded=0;whiteSpace=wrap;html=1;" vertex="1" parent="1">
          <mxGeometry x="440" y="155" width="110" height="60" as="geometry" />
        </mxCell>
        <mxCell id="ttTCm1TydupwxM61X2c0-24" value="" style="endArrow=classic;html=1;rounded=0;entryX=0;entryY=0.5;entryDx=0;entryDy=0;exitX=1;exitY=0.5;exitDx=0;exitDy=0;" edge="1" parent="1" source="ttTCm1TydupwxM61X2c0-12" target="ttTCm1TydupwxM61X2c0-23">
          <mxGeometry width="50" height="50" relative="1" as="geometry">
            <mxPoint x="380" y="230" as="sourcePoint" />
            <mxPoint x="430" y="180" as="targetPoint" />
          </mxGeometry>
        </mxCell>
        <mxCell id="ttTCm1TydupwxM61X2c0-25" value="within 24hrs before booking date" style="rhombus;whiteSpace=wrap;html=1;" vertex="1" parent="1">
          <mxGeometry x="570" y="145" width="80" height="80" as="geometry" />
        </mxCell>
        <mxCell id="ttTCm1TydupwxM61X2c0-26" value="" style="endArrow=classic;html=1;rounded=0;exitX=1;exitY=0.5;exitDx=0;exitDy=0;entryX=0;entryY=0.5;entryDx=0;entryDy=0;" edge="1" parent="1" source="ttTCm1TydupwxM61X2c0-23" target="ttTCm1TydupwxM61X2c0-25">
          <mxGeometry width="50" height="50" relative="1" as="geometry">
            <mxPoint x="380" y="230" as="sourcePoint" />
            <mxPoint x="430" y="180" as="targetPoint" />
          </mxGeometry>
        </mxCell>
        <mxCell id="ttTCm1TydupwxM61X2c0-27" value="make a phone call" style="rounded=1;whiteSpace=wrap;html=1;" vertex="1" parent="1">
          <mxGeometry x="570" y="260" width="80" height="40" as="geometry" />
        </mxCell>
        <mxCell id="ttTCm1TydupwxM61X2c0-28" value="" style="endArrow=classic;html=1;rounded=0;exitX=0.5;exitY=1;exitDx=0;exitDy=0;entryX=0.5;entryY=0;entryDx=0;entryDy=0;" edge="1" parent="1" source="ttTCm1TydupwxM61X2c0-25" target="ttTCm1TydupwxM61X2c0-27">
          <mxGeometry width="50" height="50" relative="1" as="geometry">
            <mxPoint x="380" y="230" as="sourcePoint" />
            <mxPoint x="430" y="180" as="targetPoint" />
          </mxGeometry>
        </mxCell>
        <mxCell id="ttTCm1TydupwxM61X2c0-29" value="yes" style="edgeLabel;html=1;align=center;verticalAlign=middle;resizable=0;points=[];" vertex="1" connectable="0" parent="ttTCm1TydupwxM61X2c0-28">
          <mxGeometry x="-0.3333" y="2" relative="1" as="geometry">
            <mxPoint as="offset" />
          </mxGeometry>
        </mxCell>
        <mxCell id="ttTCm1TydupwxM61X2c0-30" value="booking process ended" style="rounded=1;whiteSpace=wrap;html=1;" vertex="1" parent="1">
          <mxGeometry x="690" y="160" width="100" height="50" as="geometry" />
        </mxCell>
        <mxCell id="ttTCm1TydupwxM61X2c0-32" value="" style="endArrow=classic;html=1;rounded=0;exitX=1;exitY=0.5;exitDx=0;exitDy=0;entryX=0;entryY=0.5;entryDx=0;entryDy=0;" edge="1" parent="1" source="ttTCm1TydupwxM61X2c0-25" target="ttTCm1TydupwxM61X2c0-30">
          <mxGeometry width="50" height="50" relative="1" as="geometry">
            <mxPoint x="410" y="230" as="sourcePoint" />
            <mxPoint x="460" y="180" as="targetPoint" />
          </mxGeometry>
        </mxCell>
        <mxCell id="ttTCm1TydupwxM61X2c0-33" value="no" style="edgeLabel;html=1;align=center;verticalAlign=middle;resizable=0;points=[];" vertex="1" connectable="0" parent="ttTCm1TydupwxM61X2c0-32">
          <mxGeometry x="-0.0667" y="-2" relative="1" as="geometry">
            <mxPoint as="offset" />
          </mxGeometry>
        </mxCell>
        <mxCell id="ttTCm1TydupwxM61X2c0-36" value="" style="endArrow=none;html=1;rounded=0;exitX=1;exitY=0.5;exitDx=0;exitDy=0;" edge="1" parent="1" source="ttTCm1TydupwxM61X2c0-20">
          <mxGeometry width="50" height="50" relative="1" as="geometry">
            <mxPoint x="410" y="230" as="sourcePoint" />
            <mxPoint x="740" y="80" as="targetPoint" />
          </mxGeometry>
        </mxCell>
        <mxCell id="ttTCm1TydupwxM61X2c0-37" value="" style="endArrow=classic;html=1;rounded=0;entryX=0.5;entryY=0;entryDx=0;entryDy=0;" edge="1" parent="1" target="ttTCm1TydupwxM61X2c0-30">
          <mxGeometry width="50" height="50" relative="1" as="geometry">
            <mxPoint x="740" y="80" as="sourcePoint" />
            <mxPoint x="460" y="180" as="targetPoint" />
          </mxGeometry>
        </mxCell>
        <mxCell id="ttTCm1TydupwxM61X2c0-39" value="" style="endArrow=none;html=1;rounded=0;exitX=0.5;exitY=1;exitDx=0;exitDy=0;" edge="1" parent="1" source="ttTCm1TydupwxM61X2c0-18">
          <mxGeometry width="50" height="50" relative="1" as="geometry">
            <mxPoint x="410" y="230" as="sourcePoint" />
            <mxPoint x="360" y="340" as="targetPoint" />
          </mxGeometry>
        </mxCell>
        <mxCell id="ttTCm1TydupwxM61X2c0-40" value="" style="endArrow=none;html=1;rounded=0;" edge="1" parent="1">
          <mxGeometry width="50" height="50" relative="1" as="geometry">
            <mxPoint x="360" y="340" as="sourcePoint" />
            <mxPoint x="740" y="340" as="targetPoint" />
          </mxGeometry>
        </mxCell>
        <mxCell id="ttTCm1TydupwxM61X2c0-41" value="" style="endArrow=classic;html=1;rounded=0;entryX=0.5;entryY=1;entryDx=0;entryDy=0;" edge="1" parent="1" target="ttTCm1TydupwxM61X2c0-30">
          <mxGeometry width="50" height="50" relative="1" as="geometry">
            <mxPoint x="740" y="340" as="sourcePoint" />
            <mxPoint x="460" y="180" as="targetPoint" />
          </mxGeometry>
        </mxCell>
        <mxCell id="ttTCm1TydupwxM61X2c0-42" value="Admin" style="rounded=1;whiteSpace=wrap;html=1;" vertex="1" parent="1">
          <mxGeometry x="40" y="500" width="60" height="30" as="geometry" />
        </mxCell>
        <mxCell id="ttTCm1TydupwxM61X2c0-47" value="" style="edgeStyle=orthogonalEdgeStyle;rounded=0;orthogonalLoop=1;jettySize=auto;html=1;" edge="1" parent="1" source="ttTCm1TydupwxM61X2c0-43" target="ttTCm1TydupwxM61X2c0-45">
          <mxGeometry relative="1" as="geometry" />
        </mxCell>
        <mxCell id="ttTCm1TydupwxM61X2c0-43" value="signin" style="rounded=1;whiteSpace=wrap;html=1;" vertex="1" parent="1">
          <mxGeometry x="140" y="492.5" width="60" height="45" as="geometry" />
        </mxCell>
        <mxCell id="ttTCm1TydupwxM61X2c0-44" value="" style="endArrow=classic;html=1;rounded=0;exitX=1;exitY=0.5;exitDx=0;exitDy=0;entryX=0;entryY=0.5;entryDx=0;entryDy=0;" edge="1" parent="1" source="ttTCm1TydupwxM61X2c0-42" target="ttTCm1TydupwxM61X2c0-43">
          <mxGeometry width="50" height="50" relative="1" as="geometry">
            <mxPoint x="370" y="400" as="sourcePoint" />
            <mxPoint x="420" y="350" as="targetPoint" />
          </mxGeometry>
        </mxCell>
        <mxCell id="ttTCm1TydupwxM61X2c0-48" value="" style="edgeStyle=orthogonalEdgeStyle;rounded=0;orthogonalLoop=1;jettySize=auto;html=1;" edge="1" parent="1" source="ttTCm1TydupwxM61X2c0-45" target="ttTCm1TydupwxM61X2c0-46">
          <mxGeometry relative="1" as="geometry" />
        </mxCell>
        <mxCell id="ttTCm1TydupwxM61X2c0-45" value="review calendars and booking infomation" style="rounded=1;whiteSpace=wrap;html=1;" vertex="1" parent="1">
          <mxGeometry x="240" y="485" width="120" height="60" as="geometry" />
        </mxCell>
        <mxCell id="ttTCm1TydupwxM61X2c0-50" value="" style="edgeStyle=orthogonalEdgeStyle;rounded=0;orthogonalLoop=1;jettySize=auto;html=1;exitX=0.5;exitY=1;exitDx=0;exitDy=0;entryX=0;entryY=0.5;entryDx=0;entryDy=0;" edge="1" parent="1" source="ttTCm1TydupwxM61X2c0-45" target="ttTCm1TydupwxM61X2c0-49">
          <mxGeometry relative="1" as="geometry">
            <mxPoint x="290" y="610" as="sourcePoint" />
          </mxGeometry>
        </mxCell>
        <mxCell id="ttTCm1TydupwxM61X2c0-59" style="edgeStyle=orthogonalEdgeStyle;rounded=0;orthogonalLoop=1;jettySize=auto;html=1;exitX=1;exitY=0.5;exitDx=0;exitDy=0;" edge="1" parent="1" source="ttTCm1TydupwxM61X2c0-46">
          <mxGeometry relative="1" as="geometry">
            <mxPoint x="610" y="515" as="targetPoint" />
          </mxGeometry>
        </mxCell>
        <mxCell id="ttTCm1TydupwxM61X2c0-46" value="add/update/delete appointments for clients" style="rounded=1;whiteSpace=wrap;html=1;" vertex="1" parent="1">
          <mxGeometry x="390" y="485" width="120" height="60" as="geometry" />
        </mxCell>
        <mxCell id="ttTCm1TydupwxM61X2c0-49" value="setup re-examination intervals for clients" style="rounded=1;whiteSpace=wrap;html=1;" vertex="1" parent="1">
          <mxGeometry x="390" y="580" width="120" height="60" as="geometry" />
        </mxCell>
        <mxCell id="ttTCm1TydupwxM61X2c0-58" style="edgeStyle=orthogonalEdgeStyle;rounded=0;orthogonalLoop=1;jettySize=auto;html=1;exitX=1;exitY=0.5;exitDx=0;exitDy=0;entryX=0;entryY=0.5;entryDx=0;entryDy=0;" edge="1" parent="1" source="ttTCm1TydupwxM61X2c0-51" target="ttTCm1TydupwxM61X2c0-57">
          <mxGeometry relative="1" as="geometry" />
        </mxCell>
        <mxCell id="ttTCm1TydupwxM61X2c0-51" value="add/update/delete vacations" style="rounded=1;whiteSpace=wrap;html=1;" vertex="1" parent="1">
          <mxGeometry x="390" y="390" width="120" height="60" as="geometry" />
        </mxCell>
        <mxCell id="ttTCm1TydupwxM61X2c0-52" value="" style="endArrow=classic;html=1;rounded=0;entryX=0;entryY=0.5;entryDx=0;entryDy=0;" edge="1" parent="1" target="ttTCm1TydupwxM61X2c0-51">
          <mxGeometry width="50" height="50" relative="1" as="geometry">
            <mxPoint x="300" y="420" as="sourcePoint" />
            <mxPoint x="300" y="420" as="targetPoint" />
          </mxGeometry>
        </mxCell>
        <mxCell id="ttTCm1TydupwxM61X2c0-53" value="" style="endArrow=none;html=1;rounded=0;exitX=0.5;exitY=0;exitDx=0;exitDy=0;" edge="1" parent="1" source="ttTCm1TydupwxM61X2c0-45">
          <mxGeometry width="50" height="50" relative="1" as="geometry">
            <mxPoint x="390" y="510" as="sourcePoint" />
            <mxPoint x="300" y="420" as="targetPoint" />
          </mxGeometry>
        </mxCell>
        <mxCell id="ttTCm1TydupwxM61X2c0-61" style="edgeStyle=orthogonalEdgeStyle;rounded=0;orthogonalLoop=1;jettySize=auto;html=1;exitX=1;exitY=0.5;exitDx=0;exitDy=0;entryX=0;entryY=0.5;entryDx=0;entryDy=0;" edge="1" parent="1" source="ttTCm1TydupwxM61X2c0-54" target="ttTCm1TydupwxM61X2c0-57">
          <mxGeometry relative="1" as="geometry" />
        </mxCell>
        <mxCell id="ttTCm1TydupwxM61X2c0-54" value="create accounts for clients (default password: &lt;i&gt;&lt;font color=&quot;#ff0000&quot;&gt;password&lt;/font&gt;&lt;/i&gt;)" style="rounded=1;whiteSpace=wrap;html=1;" vertex="1" parent="1">
          <mxGeometry x="390" y="670" width="120" height="60" as="geometry" />
        </mxCell>
        <mxCell id="ttTCm1TydupwxM61X2c0-55" value="" style="endArrow=classic;html=1;rounded=0;entryX=0;entryY=0.5;entryDx=0;entryDy=0;" edge="1" parent="1" target="ttTCm1TydupwxM61X2c0-54">
          <mxGeometry width="50" height="50" relative="1" as="geometry">
            <mxPoint x="300" y="700" as="sourcePoint" />
            <mxPoint x="440" y="530" as="targetPoint" />
          </mxGeometry>
        </mxCell>
        <mxCell id="ttTCm1TydupwxM61X2c0-56" value="" style="endArrow=none;html=1;rounded=0;" edge="1" parent="1">
          <mxGeometry width="50" height="50" relative="1" as="geometry">
            <mxPoint x="300" y="700" as="sourcePoint" />
            <mxPoint x="300" y="610" as="targetPoint" />
          </mxGeometry>
        </mxCell>
        <mxCell id="ttTCm1TydupwxM61X2c0-57" value="signout" style="rounded=1;whiteSpace=wrap;html=1;" vertex="1" parent="1">
          <mxGeometry x="610" y="485" width="120" height="60" as="geometry" />
        </mxCell>
        <mxCell id="ttTCm1TydupwxM61X2c0-63" value="" style="endArrow=none;html=1;rounded=0;exitX=1;exitY=0.5;exitDx=0;exitDy=0;" edge="1" parent="1" source="ttTCm1TydupwxM61X2c0-49">
          <mxGeometry width="50" height="50" relative="1" as="geometry">
            <mxPoint x="410" y="560" as="sourcePoint" />
            <mxPoint x="560" y="610" as="targetPoint" />
          </mxGeometry>
        </mxCell>
        <mxCell id="ttTCm1TydupwxM61X2c0-67" style="edgeStyle=orthogonalEdgeStyle;rounded=0;orthogonalLoop=1;jettySize=auto;html=1;exitX=1;exitY=0.5;exitDx=0;exitDy=0;entryX=0;entryY=0.5;entryDx=0;entryDy=0;" edge="1" parent="1" source="ttTCm1TydupwxM61X2c0-65" target="ttTCm1TydupwxM61X2c0-66">
          <mxGeometry relative="1" as="geometry" />
        </mxCell>
        <mxCell id="ttTCm1TydupwxM61X2c0-65" value="Server" style="rounded=1;whiteSpace=wrap;html=1;" vertex="1" parent="1">
          <mxGeometry x="40" y="850" width="60" height="30" as="geometry" />
        </mxCell>
        <mxCell id="ttTCm1TydupwxM61X2c0-70" value="" style="edgeStyle=orthogonalEdgeStyle;rounded=0;orthogonalLoop=1;jettySize=auto;html=1;" edge="1" parent="1" source="ttTCm1TydupwxM61X2c0-66" target="ttTCm1TydupwxM61X2c0-68">
          <mxGeometry relative="1" as="geometry" />
        </mxCell>
        <mxCell id="ttTCm1TydupwxM61X2c0-66" value="run a scheduled function (e.g 8:00am each day)" style="rounded=1;whiteSpace=wrap;html=1;" vertex="1" parent="1">
          <mxGeometry x="130" y="835" width="120" height="60" as="geometry" />
        </mxCell>
        <mxCell id="ttTCm1TydupwxM61X2c0-72" style="edgeStyle=orthogonalEdgeStyle;rounded=0;orthogonalLoop=1;jettySize=auto;html=1;" edge="1" parent="1" source="ttTCm1TydupwxM61X2c0-68" target="ttTCm1TydupwxM61X2c0-71">
          <mxGeometry relative="1" as="geometry" />
        </mxCell>
        <mxCell id="ttTCm1TydupwxM61X2c0-68" value="scan each client record for its next appointment date and re-exam interval (&lt;font color=&quot;#ff0000&quot;&gt;skip those without appointment dates or intervals setup&lt;/font&gt;)" style="rounded=1;whiteSpace=wrap;html=1;" vertex="1" parent="1">
          <mxGeometry x="290" y="808.75" width="150" height="112.5" as="geometry" />
        </mxCell>
        <mxCell id="ttTCm1TydupwxM61X2c0-75" style="edgeStyle=orthogonalEdgeStyle;rounded=0;orthogonalLoop=1;jettySize=auto;html=1;entryX=0.5;entryY=0;entryDx=0;entryDy=0;" edge="1" parent="1" source="ttTCm1TydupwxM61X2c0-71" target="ttTCm1TydupwxM61X2c0-74">
          <mxGeometry relative="1" as="geometry" />
        </mxCell>
        <mxCell id="ttTCm1TydupwxM61X2c0-76" value="yes" style="edgeLabel;html=1;align=center;verticalAlign=middle;resizable=0;points=[];" vertex="1" connectable="0" parent="ttTCm1TydupwxM61X2c0-75">
          <mxGeometry x="-0.1022" y="-1" relative="1" as="geometry">
            <mxPoint as="offset" />
          </mxGeometry>
        </mxCell>
        <mxCell id="ttTCm1TydupwxM61X2c0-92" style="edgeStyle=orthogonalEdgeStyle;rounded=0;orthogonalLoop=1;jettySize=auto;html=1;exitX=1;exitY=0.5;exitDx=0;exitDy=0;entryX=0;entryY=0.5;entryDx=0;entryDy=0;" edge="1" parent="1" source="ttTCm1TydupwxM61X2c0-71" target="ttTCm1TydupwxM61X2c0-91">
          <mxGeometry relative="1" as="geometry" />
        </mxCell>
        <mxCell id="ttTCm1TydupwxM61X2c0-93" value="no" style="edgeLabel;html=1;align=center;verticalAlign=middle;resizable=0;points=[];" vertex="1" connectable="0" parent="ttTCm1TydupwxM61X2c0-92">
          <mxGeometry x="0.0133" relative="1" as="geometry">
            <mxPoint as="offset" />
          </mxGeometry>
        </mxCell>
        <mxCell id="ttTCm1TydupwxM61X2c0-71" value="is next appointment date setup?" style="rhombus;whiteSpace=wrap;html=1;" vertex="1" parent="1">
          <mxGeometry x="470" y="825" width="130" height="80" as="geometry" />
        </mxCell>
        <mxCell id="ttTCm1TydupwxM61X2c0-80" style="edgeStyle=orthogonalEdgeStyle;rounded=0;orthogonalLoop=1;jettySize=auto;html=1;exitX=0;exitY=0.5;exitDx=0;exitDy=0;" edge="1" parent="1" source="ttTCm1TydupwxM61X2c0-74" target="ttTCm1TydupwxM61X2c0-79">
          <mxGeometry relative="1" as="geometry" />
        </mxCell>
        <mxCell id="ttTCm1TydupwxM61X2c0-81" value="yes" style="edgeLabel;html=1;align=center;verticalAlign=middle;resizable=0;points=[];" vertex="1" connectable="0" parent="ttTCm1TydupwxM61X2c0-80">
          <mxGeometry x="-0.1" relative="1" as="geometry">
            <mxPoint as="offset" />
          </mxGeometry>
        </mxCell>
        <mxCell id="ttTCm1TydupwxM61X2c0-89" style="edgeStyle=orthogonalEdgeStyle;rounded=0;orthogonalLoop=1;jettySize=auto;html=1;exitX=0.5;exitY=1;exitDx=0;exitDy=0;entryX=1;entryY=0.5;entryDx=0;entryDy=0;" edge="1" parent="1" source="ttTCm1TydupwxM61X2c0-74" target="ttTCm1TydupwxM61X2c0-87">
          <mxGeometry relative="1" as="geometry" />
        </mxCell>
        <mxCell id="ttTCm1TydupwxM61X2c0-90" value="no" style="edgeLabel;html=1;align=center;verticalAlign=middle;resizable=0;points=[];" vertex="1" connectable="0" parent="ttTCm1TydupwxM61X2c0-89">
          <mxGeometry x="-0.634" y="-4" relative="1" as="geometry">
            <mxPoint as="offset" />
          </mxGeometry>
        </mxCell>
        <mxCell id="ttTCm1TydupwxM61X2c0-74" value="is appointment date less than 3 days ahead ?" style="rhombus;whiteSpace=wrap;html=1;" vertex="1" parent="1">
          <mxGeometry x="470" y="980" width="130" height="80" as="geometry" />
        </mxCell>
        <mxCell id="ttTCm1TydupwxM61X2c0-88" style="edgeStyle=orthogonalEdgeStyle;rounded=0;orthogonalLoop=1;jettySize=auto;html=1;exitX=0.5;exitY=1;exitDx=0;exitDy=0;entryX=0;entryY=0.5;entryDx=0;entryDy=0;" edge="1" parent="1" source="ttTCm1TydupwxM61X2c0-77" target="ttTCm1TydupwxM61X2c0-87">
          <mxGeometry relative="1" as="geometry" />
        </mxCell>
        <mxCell id="ttTCm1TydupwxM61X2c0-77" value="send appointment reminder message" style="rounded=1;whiteSpace=wrap;html=1;" vertex="1" parent="1">
          <mxGeometry x="140" y="990" width="120" height="60" as="geometry" />
        </mxCell>
        <mxCell id="ttTCm1TydupwxM61X2c0-82" style="edgeStyle=orthogonalEdgeStyle;rounded=0;orthogonalLoop=1;jettySize=auto;html=1;exitX=0;exitY=0.5;exitDx=0;exitDy=0;entryX=1;entryY=0.5;entryDx=0;entryDy=0;" edge="1" parent="1" source="ttTCm1TydupwxM61X2c0-79" target="ttTCm1TydupwxM61X2c0-77">
          <mxGeometry relative="1" as="geometry" />
        </mxCell>
        <mxCell id="ttTCm1TydupwxM61X2c0-83" value="no" style="edgeLabel;html=1;align=center;verticalAlign=middle;resizable=0;points=[];" vertex="1" connectable="0" parent="ttTCm1TydupwxM61X2c0-82">
          <mxGeometry x="-0.0333" y="2" relative="1" as="geometry">
            <mxPoint as="offset" />
          </mxGeometry>
        </mxCell>
        <mxCell id="ttTCm1TydupwxM61X2c0-85" value="" style="edgeStyle=orthogonalEdgeStyle;rounded=0;orthogonalLoop=1;jettySize=auto;html=1;entryX=0.5;entryY=0;entryDx=0;entryDy=0;" edge="1" parent="1" source="ttTCm1TydupwxM61X2c0-79" target="ttTCm1TydupwxM61X2c0-87">
          <mxGeometry relative="1" as="geometry">
            <mxPoint x="360" y="1120" as="targetPoint" />
          </mxGeometry>
        </mxCell>
        <mxCell id="ttTCm1TydupwxM61X2c0-86" value="yes" style="edgeLabel;html=1;align=center;verticalAlign=middle;resizable=0;points=[];" vertex="1" connectable="0" parent="ttTCm1TydupwxM61X2c0-85">
          <mxGeometry x="-0.1852" y="1" relative="1" as="geometry">
            <mxPoint as="offset" />
          </mxGeometry>
        </mxCell>
        <mxCell id="ttTCm1TydupwxM61X2c0-79" value="is appointment reminder message sent?" style="rhombus;whiteSpace=wrap;html=1;" vertex="1" parent="1">
          <mxGeometry x="305" y="980" width="120" height="80" as="geometry" />
        </mxCell>
        <mxCell id="ttTCm1TydupwxM61X2c0-87" value="done with current client record" style="rounded=1;whiteSpace=wrap;html=1;" vertex="1" parent="1">
          <mxGeometry x="305" y="1120" width="120" height="60" as="geometry" />
        </mxCell>
        <mxCell id="ttTCm1TydupwxM61X2c0-94" style="edgeStyle=orthogonalEdgeStyle;rounded=0;orthogonalLoop=1;jettySize=auto;html=1;exitX=0.5;exitY=1;exitDx=0;exitDy=0;entryX=1;entryY=0.5;entryDx=0;entryDy=0;" edge="1" parent="1" source="ttTCm1TydupwxM61X2c0-91" target="ttTCm1TydupwxM61X2c0-87">
          <mxGeometry relative="1" as="geometry" />
        </mxCell>
        <mxCell id="ttTCm1TydupwxM61X2c0-95" value="no" style="edgeLabel;html=1;align=center;verticalAlign=middle;resizable=0;points=[];" vertex="1" connectable="0" parent="ttTCm1TydupwxM61X2c0-94">
          <mxGeometry x="-0.653" relative="1" as="geometry">
            <mxPoint as="offset" />
          </mxGeometry>
        </mxCell>
        <mxCell id="ttTCm1TydupwxM61X2c0-97" style="edgeStyle=orthogonalEdgeStyle;rounded=0;orthogonalLoop=1;jettySize=auto;html=1;exitX=1;exitY=0.5;exitDx=0;exitDy=0;entryX=0;entryY=0.5;entryDx=0;entryDy=0;" edge="1" parent="1" source="ttTCm1TydupwxM61X2c0-91" target="ttTCm1TydupwxM61X2c0-96">
          <mxGeometry relative="1" as="geometry" />
        </mxCell>
        <mxCell id="ttTCm1TydupwxM61X2c0-98" value="yes" style="edgeLabel;html=1;align=center;verticalAlign=middle;resizable=0;points=[];" vertex="1" connectable="0" parent="ttTCm1TydupwxM61X2c0-97">
          <mxGeometry x="0.047" relative="1" as="geometry">
            <mxPoint as="offset" />
          </mxGeometry>
        </mxCell>
        <mxCell id="ttTCm1TydupwxM61X2c0-91" value="is re-exam interval setup?" style="rhombus;whiteSpace=wrap;html=1;" vertex="1" parent="1">
          <mxGeometry x="640" y="825" width="120" height="80" as="geometry" />
        </mxCell>
        <mxCell id="ttTCm1TydupwxM61X2c0-99" style="edgeStyle=orthogonalEdgeStyle;rounded=0;orthogonalLoop=1;jettySize=auto;html=1;exitX=0.5;exitY=1;exitDx=0;exitDy=0;entryX=1;entryY=0.5;entryDx=0;entryDy=0;" edge="1" parent="1" source="ttTCm1TydupwxM61X2c0-96" target="ttTCm1TydupwxM61X2c0-87">
          <mxGeometry relative="1" as="geometry" />
        </mxCell>
        <mxCell id="ttTCm1TydupwxM61X2c0-100" value="no" style="edgeLabel;html=1;align=center;verticalAlign=middle;resizable=0;points=[];" vertex="1" connectable="0" parent="ttTCm1TydupwxM61X2c0-99">
          <mxGeometry x="-0.7345" relative="1" as="geometry">
            <mxPoint as="offset" />
          </mxGeometry>
        </mxCell>
        <mxCell id="ttTCm1TydupwxM61X2c0-102" style="edgeStyle=orthogonalEdgeStyle;rounded=0;orthogonalLoop=1;jettySize=auto;html=1;exitX=1;exitY=0.5;exitDx=0;exitDy=0;entryX=0;entryY=0.5;entryDx=0;entryDy=0;" edge="1" parent="1" source="ttTCm1TydupwxM61X2c0-96" target="ttTCm1TydupwxM61X2c0-101">
          <mxGeometry relative="1" as="geometry" />
        </mxCell>
        <mxCell id="ttTCm1TydupwxM61X2c0-103" value="yes" style="edgeLabel;html=1;align=center;verticalAlign=middle;resizable=0;points=[];" vertex="1" connectable="0" parent="ttTCm1TydupwxM61X2c0-102">
          <mxGeometry x="-0.0742" relative="1" as="geometry">
            <mxPoint as="offset" />
          </mxGeometry>
        </mxCell>
        <mxCell id="ttTCm1TydupwxM61X2c0-96" value="is today for scheduling for re-exam?" style="rhombus;whiteSpace=wrap;html=1;" vertex="1" parent="1">
          <mxGeometry x="800" y="825" width="130" height="80" as="geometry" />
        </mxCell>
        <mxCell id="ttTCm1TydupwxM61X2c0-105" style="edgeStyle=orthogonalEdgeStyle;rounded=0;orthogonalLoop=1;jettySize=auto;html=1;exitX=0.5;exitY=1;exitDx=0;exitDy=0;entryX=0.5;entryY=0;entryDx=0;entryDy=0;" edge="1" parent="1" source="ttTCm1TydupwxM61X2c0-101" target="ttTCm1TydupwxM61X2c0-104">
          <mxGeometry relative="1" as="geometry" />
        </mxCell>
        <mxCell id="ttTCm1TydupwxM61X2c0-107" value="no" style="edgeLabel;html=1;align=center;verticalAlign=middle;resizable=0;points=[];" vertex="1" connectable="0" parent="ttTCm1TydupwxM61X2c0-105">
          <mxGeometry x="-0.2716" relative="1" as="geometry">
            <mxPoint as="offset" />
          </mxGeometry>
        </mxCell>
        <mxCell id="ttTCm1TydupwxM61X2c0-109" style="edgeStyle=orthogonalEdgeStyle;rounded=0;orthogonalLoop=1;jettySize=auto;html=1;exitX=1;exitY=0.5;exitDx=0;exitDy=0;entryX=0;entryY=0.5;entryDx=0;entryDy=0;" edge="1" parent="1" source="ttTCm1TydupwxM61X2c0-101" target="ttTCm1TydupwxM61X2c0-108">
          <mxGeometry relative="1" as="geometry" />
        </mxCell>
        <mxCell id="ttTCm1TydupwxM61X2c0-110" value="yes" style="edgeLabel;html=1;align=center;verticalAlign=middle;resizable=0;points=[];" vertex="1" connectable="0" parent="ttTCm1TydupwxM61X2c0-109">
          <mxGeometry x="0.0681" y="2" relative="1" as="geometry">
            <mxPoint as="offset" />
          </mxGeometry>
        </mxCell>
        <mxCell id="ttTCm1TydupwxM61X2c0-101" value="is appointment-making message sent?" style="rhombus;whiteSpace=wrap;html=1;" vertex="1" parent="1">
          <mxGeometry x="970" y="822.5" width="140" height="85" as="geometry" />
        </mxCell>
        <mxCell id="ttTCm1TydupwxM61X2c0-106" style="edgeStyle=orthogonalEdgeStyle;rounded=0;orthogonalLoop=1;jettySize=auto;html=1;exitX=0.5;exitY=1;exitDx=0;exitDy=0;entryX=1;entryY=0.5;entryDx=0;entryDy=0;" edge="1" parent="1" source="ttTCm1TydupwxM61X2c0-104" target="ttTCm1TydupwxM61X2c0-87">
          <mxGeometry relative="1" as="geometry" />
        </mxCell>
        <mxCell id="ttTCm1TydupwxM61X2c0-104" value="send appointment-making message" style="rounded=1;whiteSpace=wrap;html=1;" vertex="1" parent="1">
          <mxGeometry x="980" y="970" width="120" height="60" as="geometry" />
        </mxCell>
        <mxCell id="ttTCm1TydupwxM61X2c0-117" style="edgeStyle=orthogonalEdgeStyle;rounded=0;orthogonalLoop=1;jettySize=auto;html=1;exitX=0.5;exitY=1;exitDx=0;exitDy=0;entryX=0.5;entryY=0;entryDx=0;entryDy=0;" edge="1" parent="1" source="ttTCm1TydupwxM61X2c0-108" target="ttTCm1TydupwxM61X2c0-115">
          <mxGeometry relative="1" as="geometry" />
        </mxCell>
        <mxCell id="ttTCm1TydupwxM61X2c0-118" value="no" style="edgeLabel;html=1;align=center;verticalAlign=middle;resizable=0;points=[];" vertex="1" connectable="0" parent="ttTCm1TydupwxM61X2c0-117">
          <mxGeometry x="-0.3754" y="-1" relative="1" as="geometry">
            <mxPoint as="offset" />
          </mxGeometry>
        </mxCell>
        <mxCell id="ttTCm1TydupwxM61X2c0-108" value="is new appointment made within 7 days after appointment-making message?" style="rhombus;whiteSpace=wrap;html=1;" vertex="1" parent="1">
          <mxGeometry x="1160" y="810" width="140" height="110" as="geometry" />
        </mxCell>
        <mxCell id="ttTCm1TydupwxM61X2c0-119" style="edgeStyle=orthogonalEdgeStyle;rounded=0;orthogonalLoop=1;jettySize=auto;html=1;exitX=0.5;exitY=1;exitDx=0;exitDy=0;entryX=0.5;entryY=0;entryDx=0;entryDy=0;" edge="1" parent="1" source="ttTCm1TydupwxM61X2c0-115" target="ttTCm1TydupwxM61X2c0-116">
          <mxGeometry relative="1" as="geometry" />
        </mxCell>
        <mxCell id="ttTCm1TydupwxM61X2c0-120" value="no" style="edgeLabel;html=1;align=center;verticalAlign=middle;resizable=0;points=[];" vertex="1" connectable="0" parent="ttTCm1TydupwxM61X2c0-119">
          <mxGeometry x="-0.3222" y="-1" relative="1" as="geometry">
            <mxPoint as="offset" />
          </mxGeometry>
        </mxCell>
        <mxCell id="ttTCm1TydupwxM61X2c0-122" style="edgeStyle=orthogonalEdgeStyle;rounded=0;orthogonalLoop=1;jettySize=auto;html=1;exitX=1;exitY=0.5;exitDx=0;exitDy=0;entryX=1;entryY=0.5;entryDx=0;entryDy=0;" edge="1" parent="1" source="ttTCm1TydupwxM61X2c0-115" target="ttTCm1TydupwxM61X2c0-87">
          <mxGeometry relative="1" as="geometry" />
        </mxCell>
        <mxCell id="ttTCm1TydupwxM61X2c0-123" value="yes" style="edgeLabel;html=1;align=center;verticalAlign=middle;resizable=0;points=[];" vertex="1" connectable="0" parent="ttTCm1TydupwxM61X2c0-122">
          <mxGeometry x="-0.8599" y="-1" relative="1" as="geometry">
            <mxPoint as="offset" />
          </mxGeometry>
        </mxCell>
        <mxCell id="ttTCm1TydupwxM61X2c0-115" value="is no-appointment-made message sent?" style="rhombus;whiteSpace=wrap;html=1;" vertex="1" parent="1">
          <mxGeometry x="1155" y="960" width="150" height="80" as="geometry" />
        </mxCell>
        <mxCell id="ttTCm1TydupwxM61X2c0-121" style="edgeStyle=orthogonalEdgeStyle;rounded=0;orthogonalLoop=1;jettySize=auto;html=1;exitX=0.5;exitY=1;exitDx=0;exitDy=0;entryX=1;entryY=0.5;entryDx=0;entryDy=0;" edge="1" parent="1" source="ttTCm1TydupwxM61X2c0-116" target="ttTCm1TydupwxM61X2c0-87">
          <mxGeometry relative="1" as="geometry">
            <mxPoint x="410.95238095238096" y="1220" as="targetPoint" />
          </mxGeometry>
        </mxCell>
        <mxCell id="ttTCm1TydupwxM61X2c0-116" value="send no-appointment-made by this client message to admin" style="rounded=1;whiteSpace=wrap;html=1;" vertex="1" parent="1">
          <mxGeometry x="1170" y="1070" width="120" height="60" as="geometry" />
        </mxCell>
      </root>
    </mxGraphModel>
  </diagram>
</mxfile>
